<svg id="Layer_1" data-name="Layer 1" xmlns="http://www.w3.org/2000/svg" viewBox="0 0 22 22"><title>theft-warning-</title><path d="M11,19c-1.68,0-3.36,0-5,0-.33,0-.46-.09-.45-.44S5.48,18,6,18c.77,0,.8,0,.82-.75,0-.94,0-1.87,0-2.8a14.16,14.16,0,0,1,.16-2.53A3.26,3.26,0,0,1,9.58,9.25a5.09,5.09,0,0,1,4.1.54,3.27,3.27,0,0,1,1.51,2.7c.06,1.64,0,3.28,0,4.91,0,.61,0,.62.6.62A1.47,1.47,0,0,0,16,18c.4-.06.47.14.47.49s-.08.51-.47.5C14.35,19,12.67,19,11,19Zm0-1c.85,0,1.71,0,2.56,0,.41,0,.55-.13.55-.53,0-1.51,0-3,0-4.51a2.54,2.54,0,0,0-.94-2.19,4.16,4.16,0,0,0-4.34,0A2,2,0,0,0,8,12.34c0,1.75,0,3.49-.06,5.24,0,.32.12.45.46.45C9.24,18,10.12,18,11,18Z"/><path d="M3.11,13.56H5.23c.2,0,.4,0,.36.29s.15.63-.31.65-1.21,0-1.82,0c-.82,0-1.65,0-2.47,0-.45,0-.34-.31-.36-.57s.09-.38.37-.37H3.11Z"/><path d="M16.43,14.45c-.09-.9-.09-.9.75-.9H21c.48,0,.31.35.34.58s0,.41-.34.41c-1.49,0-3,0-4.46,0A.51.51,0,0,1,16.43,14.45Z"/><path d="M11.45,5.47c0,.7,0,1.41,0,2.11,0,.32-.13.39-.42.38s-.5,0-.5-.38c0-1.42,0-2.84,0-4.25,0-.41.26-.32.49-.34s.43,0,.42.33C11.44,4,11.45,4.76,11.45,5.47Z"/><path d="M6.75,9.37l-.56.54L2.76,6.43l.53-.54Z"/><path d="M18.75,6l.51.51L15.78,9.92l-.47-.57Z"/><path d="M9.32,17.38a6.67,6.67,0,0,0,4-3.95c0,1.29,0,2.48,0,3.66a.37.37,0,0,1-.24.27C11.82,17.38,10.57,17.38,9.32,17.38Z"/></svg>