<svg xmlns="http://www.w3.org/2000/svg" viewBox="0 0 21.38 22.82"><defs><style>.cls-1,.cls-2,.cls-3{fill:none;stroke:#000;stroke-miterlimit:10;stroke-width:0.75px;}.cls-2{stroke-dasharray:0.01 0;}.cls-3{stroke-dasharray:1.94 1.93 0.01 0;}.cls-4{fill:#77909d;}.cls-5{fill:#a04444;}</style></defs><title>distance</title><g id="Layer_2" data-name="Layer 2"><g id="Layer_1-2" data-name="Layer 1"><line class="cls-1" x1="4.85" y1="11.44" x2="5.46" y2="12.22"/><line class="cls-2" x1="6.65" y1="13.75" x2="6.66" y2="13.76"/><line class="cls-3" x1="6.66" y1="13.76" x2="11.45" y2="19.89"/><line class="cls-1" x1="11.45" y1="19.89" x2="12.06" y2="20.68"/><path class="cls-4" d="M3.89,11,3.11,9.82C2.29,8.56,1.47,7.29.65,6a3.89,3.89,0,1,1,7.1-2.62A3.79,3.79,0,0,1,7.14,6Q5.57,8.45,4,10.88S3.92,11,3.89,11Zm2-7.11a2,2,0,1,0-2,2A2,2,0,0,0,5.91,3.9Z"/><path class="cls-4" d="M2.71,10.33A3.18,3.18,0,0,0,1.1,11l.24.12a4.6,4.6,0,0,0,1.32.25,15.56,15.56,0,0,0,3.05-.08,4.52,4.52,0,0,0,.73-.16L6.7,11a3.71,3.71,0,0,0-1.62-.66l.29-.43a.08.08,0,0,1,.08,0,4,4,0,0,1,1.33.28,1.82,1.82,0,0,1,.53.33.75.75,0,0,1,.09,1,2,2,0,0,1-.5.43,4.8,4.8,0,0,1-1.84.63,7.52,7.52,0,0,1-3.61-.35,2.49,2.49,0,0,1-.83-.45,1,1,0,0,1-.4-.67.84.84,0,0,1,.36-.74,2.5,2.5,0,0,1,1-.4l.78-.13a.18.18,0,0,1,.1,0Z"/><path class="cls-5" d="M16.3,20.68l-1-1.55c-1.07-1.64-2.14-3.29-3.22-4.93a5.08,5.08,0,1,1,9.27-3.42,4.94,4.94,0,0,1-.8,3.4l-4.13,6.34Zm2.64-9.27A2.64,2.64,0,1,0,16.28,14,2.64,2.64,0,0,0,18.94,11.41Z"/><path class="cls-5" d="M14.77,19.8a4.23,4.23,0,0,0-2.11.83,2.39,2.39,0,0,0,.32.16,5.89,5.89,0,0,0,1.71.33,20.48,20.48,0,0,0,4-.1,7.7,7.7,0,0,0,.95-.22,3.26,3.26,0,0,0,.34-.16,4.87,4.87,0,0,0-2.11-.86l.37-.57a.15.15,0,0,1,.11,0,5.76,5.76,0,0,1,1.74.37,2.44,2.44,0,0,1,.68.43,1,1,0,0,1,.12,1.37,2.68,2.68,0,0,1-.65.56,6.4,6.4,0,0,1-2.4.82,9.93,9.93,0,0,1-4.71-.45A3.45,3.45,0,0,1,12,21.68a1.27,1.27,0,0,1-.52-.88,1.07,1.07,0,0,1,.46-1,3.14,3.14,0,0,1,1.25-.52c.33-.07.67-.12,1-.17a.24.24,0,0,1,.14.05Z"/></g></g></svg>