<svg id="Layer_1" data-name="Layer 1" xmlns="http://www.w3.org/2000/svg" viewBox="0 0 30 30"><defs><style>.cls-1{fill:none;}.cls-2{fill:#49545a;}.cls-3{fill:#fff;}</style></defs><title>low-battery</title><path class="cls-1" d="M19.88,16.18h2.73c.23,0,.33-.11.34-.34v-.53c0-.31-.1-.4-.4-.4H19.9c-.25,0-.34.1-.35.34v.59C19.55,16.07,19.65,16.18,19.88,16.18Z"/><path class="cls-1" d="M10.36,14.88l-.83,0V14c0-.24-.1-.33-.33-.33H8.61a.31.31,0,0,0-.35.34v.67c0,.22,0,.2-.2.19H7.39c-.23,0-.33.1-.34.33v.57c0,.28.1.37.39.38s.42,0,.63,0,.2.06.19.2,0,.43,0,.65.1.35.36.35h.5c.33,0,.41-.08.41-.41v-.78h.83c.27,0,.37-.1.37-.37v-.55C10.73,15,10.64,14.88,10.36,14.88Z"/><path class="cls-2" d="M4.76,11.73c-.21,0-.27,0-.27.27v9.86c0,.54.23.76.77.76h5l3.83-10.87Zm5.6,4.43H9.53v.78c0,.33-.08.41-.41.41h-.5c-.26,0-.36-.13-.36-.35s0-.51,0-.65,0-.2-.19-.2-.34,0-.63,0-.39-.1-.39-.38V15.2c0-.23.11-.33.34-.33h.67c.2,0,.2,0,.2-.19V14a.31.31,0,0,1,.35-.34H9.2c.23,0,.33.09.33.33v.91l.83,0c.28,0,.37.09.37.36v.55C10.73,16.06,10.63,16.16,10.36,16.16Z"/><path class="cls-2" d="M24.73,22.62c.56,0,.78-.22.78-.79V12c0-.29,0-.29-.3-.29H16.5L12.68,22.62ZM19.9,14.91h2.65c.3,0,.4.09.4.4v.53c0,.23-.11.34-.34.34H19.88c-.23,0-.33-.11-.33-.34v-.59C19.56,15,19.65,14.91,19.9,14.91Z"/><path class="cls-2" d="M26.76,9.53a.62.62,0,0,0-.7-.53H23V8.06a.48.48,0,0,0,0-.17.6.6,0,0,0-.68-.51H19.91a.61.61,0,0,0-.51.7v.86H17.49l-.76,2.16h9.46a.59.59,0,0,0,.57-.61v-.8A.43.43,0,0,0,26.76,9.53Z"/><path class="cls-2" d="M10.79,8.94V8a.43.43,0,0,0,0-.16.59.59,0,0,0-.66-.51H7.86a.43.43,0,0,0-.16,0A.6.6,0,0,0,7.19,8V9H3.75a.61.61,0,0,0-.52.67v.88a.56.56,0,0,0,.38.55,1.28,1.28,0,0,0,.39,0H14.35l.76-2.16Z"/><polygon class="cls-2" points="19.58 3.02 17.45 2.27 15.11 8.94 17.49 8.94 19.58 3.02"/><polygon class="cls-2" points="8.37 28.07 10.49 28.82 12.68 22.62 10.29 22.62 8.37 28.07"/><polygon class="cls-2" points="14.12 11.75 15 11.75 16.5 11.75 16.73 11.1 14.35 11.1 14.12 11.75"/><polygon class="cls-3" points="14.12 11.75 10.29 22.62 12.68 22.62 16.5 11.75 15 11.75 14.12 11.75"/><polygon class="cls-3" points="15.11 8.94 14.35 11.1 16.73 11.1 17.49 8.94 15.11 8.94"/></svg>