<svg xmlns="http://www.w3.org/2000/svg" viewBox="0 0 10.15 16.5"><defs><style>.cls-1{fill:#a04444;}</style></defs><title>moved</title><g id="Layer_2" data-name="Layer 2"><g id="Layer_1-2" data-name="Layer 1"><path class="cls-1" d="M5.07,14.36l-1-1.56C3,11.16,1.92,9.51.84,7.87a5.07,5.07,0,1,1,9.27-3.41,4.91,4.91,0,0,1-.8,3.39C7.94,10,6.56,12.08,5.18,14.2ZM7.71,5.09A2.64,2.64,0,1,0,5.05,7.72,2.65,2.65,0,0,0,7.71,5.09Z"/><path class="cls-1" d="M3.54,13.48a4.14,4.14,0,0,0-2.11.83l.32.16a6.24,6.24,0,0,0,1.71.33,20.48,20.48,0,0,0,4-.11,5.23,5.23,0,0,0,1-.22,1.44,1.44,0,0,0,.34-.16,5,5,0,0,0-2.11-.86L7,12.89a.12.12,0,0,1,.11,0,5.46,5.46,0,0,1,1.74.36,3,3,0,0,1,.68.43A1,1,0,0,1,9.65,15a2.72,2.72,0,0,1-.65.57,6.21,6.21,0,0,1-2.4.81,9.69,9.69,0,0,1-4.71-.45,3.26,3.26,0,0,1-1.08-.59,1.25,1.25,0,0,1-.52-.88,1.06,1.06,0,0,1,.46-1A3,3,0,0,1,2,13c.33-.07.67-.12,1-.17a.16.16,0,0,1,.14.05Z"/></g></g></svg>