<svg xmlns="http://www.w3.org/2000/svg" viewBox="0 0 16.47 24.91"><title>theft-battery</title><g id="Layer_2" data-name="Layer 2"><g id="Layer_1-2" data-name="Layer 1"><path d="M.54,16.12h0c-.38,0-.54-.18-.54-.56V13.37a.47.47,0,0,1,.42-.53H1V11.4a.45.45,0,0,1,.41-.49H3.1a.46.46,0,0,1,.48.44v1.49h1c.16-.38.24-.46.68-.46h.87c.38,0,.51,0,.63.46h.34a.18.18,0,0,0,.12-.09.45.45,0,0,1,.46-.38H8.86a.44.44,0,0,1,.47.38.12.12,0,0,0,.12.12h.33c.14-.38.24-.46.66-.46h.93a.5.5,0,0,1,.59.39s0,0,0,.07h1V11.45a.46.46,0,0,1,.39-.52H15a.46.46,0,0,1,.49.42.11.11,0,0,1,0,.08v1.43h.39a.47.47,0,0,1,.55.38.48.48,0,0,1,0,.17v2.15c0,.38-.13.56-.53.57h0v8.29a.47.47,0,0,1-.46.49H1.17c-.46,0-.62-.16-.62-.59V16.37C.54,12.4.54,16.19.54,16.12Zm1,7.76H15V16.12H1.49ZM.85,15.16H15.61V13.77H.85Zm1.77-3.34H2v1H2.7Zm11.92,1v-1h-.63v1Z"/><path d="M8.22,18.18H3a.49.49,0,0,1-.54-.38.47.47,0,0,1,.37-.54.75.75,0,0,1,.15,0H13.67a.45.45,0,0,1,.43.46h0a.43.43,0,0,1-.41.45H8.22Z"/><path d="M8.18,20.68h.76a.44.44,0,0,1,.51.35.43.43,0,0,1-.07.33l-1,1.87a.49.49,0,0,1-.64.18.47.47,0,0,1-.16-.63h0l.52-.91v-.16H7.53c-.52,0-.77-.26-.56-.73l.68-1.63A.46.46,0,0,1,8,19a.39.39,0,0,1,.5.21.39.39,0,0,1-.06.39l-.36.85Z"/><path d="M15.61,5.73A2.15,2.15,0,0,1,14,6.49,30.19,30.19,0,0,1,2.77,6.34a9,9,0,0,1-1.21-.49A4.68,4.68,0,0,1,4,4.53a1,1,0,0,0,.87-.85A18.27,18.27,0,0,1,5.6,1.4,3.52,3.52,0,0,1,6.25.34.85.85,0,0,1,7.56.28c.16.13.31.29.46.43A.82.82,0,0,0,9.24.7c1.16-1,1.8-.86,2.41.58a13.6,13.6,0,0,1,.79,2.49c.1.49.34.62.75.75A15.21,15.21,0,0,1,15,5.24,4.49,4.49,0,0,1,15.61,5.73Z"/><path d="M4.29,7.61h8.65A6,6,0,0,1,12,10.55c-.37.51-.89.38-1.35.2a5.91,5.91,0,0,1-1.11-.59,1.45,1.45,0,0,0-1.83,0,4.21,4.21,0,0,1-1.38.63A1,1,0,0,1,5,10.09C4.66,9.27,4.5,8.41,4.29,7.61Zm7.13.83L9.27,9c.52.54.92.85,1.48.66S11.45,9.11,11.42,8.44ZM7.69,9l-2.1-.55c0,.63.11,1.1.64,1.25S7.21,9.59,7.69,9Z"/></g></g></svg>