<svg id="Layer_1" data-name="Layer 1" xmlns="http://www.w3.org/2000/svg" viewBox="0 0 15 20.48"><defs><style>.cls-1,.cls-3{fill:#231f20;}.cls-2,.cls-4{fill:#5cbc00;stroke:#231f20;}.cls-2,.cls-3,.cls-4{stroke-miterlimit:10;}.cls-2,.cls-3{stroke-width:0.1px;}.cls-3{stroke:#5cbc00;}.cls-4{stroke-width:0.83px;}</style></defs><title>map_battery_green_</title><g id="Layer_1-2" data-name="Layer 1-2"><path class="cls-1" d="M1.49,5.62C1,5.54,1,5.49,1,5S1,4,1,3.47A.37.37,0,0,1,1.42,3h.42c0-.11,0-.2,0-.29,0-.28,0-.56,0-.84a.35.35,0,0,1,.35-.37H3.49a.35.35,0,0,1,.35.38c0,.33,0,.66,0,1,0,0,0,.09,0,.14h.77l0-.05A.35.35,0,0,1,5,2.69h.93c.21,0,.3.1.38.36h.17c.11,0,.18,0,.22-.14A.28.28,0,0,1,7,2.7H8a.31.31,0,0,1,.3.25c0,.08.06.1.13.1h.24c.13-.32.18-.36.52-.36h.72c.28,0,.38.08.46.35h.78s0-.09,0-.14c0-.33,0-.66,0-1a.35.35,0,0,1,.36-.38H12.8a.35.35,0,0,1,.36.38c0,.32,0,.65,0,1,0,0,0,.09,0,.16h.42a.37.37,0,0,1,.42.42q0,.84,0,1.68c0,.32-.11.43-.43.46h-.06v.12q0,3.06,0,6.13s0,.09,0,.14a.37.37,0,0,1-.41.41H2a.67.67,0,0,1-.25,0,.38.38,0,0,1-.22-.4q0-1.47,0-2.94,0-1.64,0-3.29S1.49,5.67,1.49,5.62Zm.73,6.07H12.77V5.61H2.23Zm-.5-6.81H13.27V3.78H1.73ZM3.12,2.27H2.57V3h.54ZM12.43,3V2.27h-.54V3Z"/><path class="cls-2" d="M2.23,11.69V5.61H12.77v6.08ZM7.5,7.22H11c.25,0,.49,0,.74,0a.34.34,0,0,0,.31-.33.35.35,0,0,0-.27-.37l-.2,0H3.35a.36.36,0,0,0-.4.4c0,.2.18.32.44.32Zm0,2L7.51,9c.09-.22.19-.45.28-.67a.36.36,0,1,0-.66-.27q-.29.69-.57,1.39a.35.35,0,0,0,.23.48A.84.84,0,0,0,7,10l.42,0L7,10.75a.36.36,0,0,0,.12.5.37.37,0,0,0,.51-.15l.8-1.44a.35.35,0,0,0,0-.4A.35.35,0,0,0,8,9.12Z"/><path class="cls-2" d="M1.73,4.87V3.78H13.27V4.87Z"/><path class="cls-2" d="M3.12,2.27V3H2.57V2.27Z"/><path class="cls-2" d="M12.43,3h-.54V2.27h.54Z"/><path class="cls-3" d="M7.5,7.22H3.38c-.26,0-.41-.12-.44-.32a.36.36,0,0,1,.4-.4h8.24l.2,0a.35.35,0,0,1,.27.37.34.34,0,0,1-.31.33c-.25,0-.49,0-.74,0Z"/><path class="cls-3" d="M7.45,9.18,8,9.12a.35.35,0,0,1,.36.14.35.35,0,0,1,0,.4l-.8,1.44a.37.37,0,0,1-.51.15.36.36,0,0,1-.12-.5l.46-.83L7,10a.84.84,0,0,1-.25,0,.35.35,0,0,1-.23-.48q.28-.7.57-1.39a.36.36,0,1,1,.66.27c-.09.23-.18.45-.28.67Z"/></g><polygon class="cls-4" points="7.5 14.07 10.32 14.07 8.91 16.51 7.5 18.96 6.09 16.51 4.68 14.07 7.5 14.07"/></svg>